<?xml version="1.0" encoding="UTF-8" standalone="no"?>
<!-- Created with Inkscape (http://www.inkscape.org/) -->

<svg
   version="1.1"
   id="svg2"
   width="210mm"
   height="297mm"
   viewBox="0 0 793.70079 1122.5197"
   sodipodi:docname="naiss-logo.svg"
   inkscape:version="1.2.1 (9c6d41e410, 2022-07-14)"
   xmlns:inkscape="http://www.inkscape.org/namespaces/inkscape"
   xmlns:sodipodi="http://sodipodi.sourceforge.net/DTD/sodipodi-0.dtd"
   xmlns="http://www.w3.org/2000/svg"
   xmlns:svg="http://www.w3.org/2000/svg">
  <defs
     id="defs6" />
  <sodipodi:namedview
     id="namedview4"
     pagecolor="#ffffff"
     bordercolor="#666666"
     borderopacity="1.0"
     inkscape:showpageshadow="2"
     inkscape:pageopacity="0.0"
     inkscape:pagecheckerboard="0"
     inkscape:deskcolor="#d1d1d1"
     showgrid="false"
     inkscape:zoom="0.9475"
     inkscape:cx="260.15831"
     inkscape:cy="537.20317"
     inkscape:window-width="2056"
     inkscape:window-height="1417"
     inkscape:window-x="1380"
     inkscape:window-y="0"
     inkscape:window-maximized="1"
     inkscape:current-layer="g8"
     inkscape:document-units="mm" />
  <g
     inkscape:groupmode="layer"
     inkscape:label="Image"
     id="g8">
    <g
       id="g315"
       transform="translate(636.28238,674.53591)">
      <path
         style="fill:#000000;stroke-width:0.666667"
         d="m -545.04647,85.869796 c -0.48375,-0.58288 -1.88677,-1.05677 -3.12875,-1.05677 -1.78444,0 -2.2517,-0.26853 -2.2517,-1.29399 0,-0.71169 0.32431,-1.49442 0.72068,-1.7394 0.39638,-0.24497 0.53946,-1.16747 0.31796,-2.05 -0.32366,-1.28956 -0.0725,-1.73014 1.27932,-2.2441 2.03059,-0.77203 2.10531,-1.41614 0.34871,-3.00584 -0.73334,-0.66366 -1.33334,-1.58584 -1.33334,-2.0493 0,-0.46346 -0.43834,-1.69196 -0.97409,-2.73001 -2.06885,-4.00851 -4.35924,-9.77116 -4.35924,-10.96792 0,-1.54869 1.16719,-1.60978 2.78493,-0.14575 1.85304,1.67698 2.21759,0.57047 0.57299,-1.73916 -1.85853,-2.61007 -1.55704,-4.30509 0.81445,-4.57881 2.42503,-0.2799 2.51915,-2.84927 0.16096,-4.39441 -0.91666,-0.60063 -1.66666,-1.50675 -1.66666,-2.0136 0,-0.50686 -1.05,-2.17833 -2.33334,-3.71438 -1.28333,-1.53604 -2.33333,-3.1771 -2.33333,-3.64678 0,-0.46969 -0.80256,-2.6163 -1.78347,-4.77026 -0.9809,-2.15396 -1.70526,-4.34566 -1.60969,-4.87045 0.0956,-0.52479 -0.50075,-1.46295 -1.32517,-2.08481 -1.23877,-0.9344 -1.4785,-1.70794 -1.38121,-4.45666 0.0822,-2.32212 -0.19844,-3.58841 -0.92972,-4.19532 -0.57608,-0.47811 -0.98712,-1.64324 -0.91341,-2.58917 0.0737,-0.94593 -0.092,-2.24719 -0.36829,-2.89169 -0.31264,-0.72934 -0.0581,-1.86214 0.67419,-3 1.16466,-1.80978 1.16319,-1.81644 -0.14586,-0.66152 -2.63779,2.32722 -3.56691,0.94405 -1.9409,-2.88937 0.33661,-0.79357 0.0679,-1.04211 -1.08093,-1 -1.3654,0.05 -1.53686,-0.26473 -1.60358,-2.94397 -0.12297,-4.93796 -0.21627,-5.33333 -1.25863,-5.33333 -1.12699,0 -1.361,-1.6982 -0.32246,-2.34005 0.37265,-0.23031 0.46977,-0.75493 0.21583,-1.16581 -0.52484,-0.84923 -0.68596,-2.35132 -1.1734,-10.94001 l -0.3469,-6.11254 2.39748,-1.41455 c 1.31862,-0.77801 2.46271,-1.32736 2.54242,-1.2208 0.0797,0.10657 0.41691,1.5374 0.74932,3.17962 0.33241,1.64223 0.90156,2.99223 1.26478,3 0.98142,0.021 2.81009,-4.23433 3.27654,-7.62457 0.2249,-1.63462 0.0685,-4.70222 -0.34752,-6.81689 -0.74989,-3.81163 -0.73842,-3.86534 1.32708,-6.21782 2.31448,-2.63605 2.43804,-3.03871 1.286,-4.19075 -0.96643,-0.96643 0.81554,-2.50223 3.53775,-3.04904 0.95714,-0.19226 2.68214,-1.1421 3.83333,-2.11077 1.75973,-1.48071 2.09309,-2.22631 2.09309,-4.68142 0,-1.70529 0.60588,-4.08263 1.45632,-5.71423 1.43118,-2.74578 1.43588,-2.84688 0.27193,-5.85387 -1.91809,-4.95524 -3.10918,-9.60797 -2.91211,-11.37549 0.14181,-1.27185 0.7493,-1.8068 2.65615,-2.33897 3.16391,-0.88298 3.53334,-1.30588 4.73855,-5.42437 0.96964,-3.31354 0.951,-3.49208 -0.64393,-6.16667 -0.90337,-1.51489 -2.01663,-2.75433 -2.47392,-2.75433 -0.45729,0 -1.84747,-1.04828 -3.08929,-2.32951 l -2.25784,-2.32951 1.06926,-8.217966 c 1.00424,-7.71818 0.99759,-8.52632 -0.10932,-13.288 -0.68355,-2.94045 -0.94358,-5.4407 -0.61907,-5.95252 0.30773,-0.48537 0.57474,-2.23249 0.59335,-3.88249 0.0186,-1.65 0.43957,-3.73259 0.93548,-4.62798 0.75973,-1.37173 0.75601,-2.04077 -0.0236,-4.25049 -1.3141,-3.72456 -1.15381,-5.80881 0.65113,-8.46679 1.07826,-1.58785 1.48346,-2.95341 1.28229,-4.32142 -0.24474,-1.66422 0.51621,-3.09373 4.53242,-8.51461 3.11139,-4.19961 5.40501,-6.6598 6.45445,-6.92319 1.65043,-0.41423 8.68061,0.0906 11.19383,0.80384 1.88225,0.53417 2.96061,-2.00752 2.96061,-6.97814 0,-3.68881 -0.1163,-3.96189 -2.32878,-5.46863 -1.28083,-0.87226 -2.33083,-1.94774 -2.33333,-2.38993 -0.002,-0.4422 0.93342,-2.3922 2.07985,-4.33333 3.25143,-5.50538 6.58226,-12.06122 6.58226,-12.95542 0,-0.44661 0.38682,-1.20845 0.85961,-1.69297 1.14185,-1.17019 2.49953,-15.62381 2.0084,-21.38095 l -0.38389,-4.5 2.59127,-0.0221 c 1.71264,-0.0147 3.4905,-0.64381 5.24326,-1.85556 2.47078,-1.70814 2.63806,-2.02635 2.44812,-4.657 -0.16968,-2.35005 0.25205,-3.54547 2.51468,-7.1281 1.4952,-2.36748 2.71855,-4.56962 2.71855,-4.89366 0,-0.32403 1.15193,-1.90638 2.55983,-3.51634 3.50095,-4.00336 3.86365,-6.36752 1.66475,-10.851 -2.02981,-4.13871 -1.77407,-6.70253 0.78487,-7.86846 1.28397,-0.58502 1.99625,-1.91711 3.2859,-6.14522 1.45131,-4.7581 2.01729,-5.70816 4.77247,-8.01121 l 3.12589,-2.61292 2.91521,1.54652 c 1.60337,0.85059 3.02163,1.42695 3.1517,1.28081 1.69703,-1.90679 2.28813,-4.79874 1.93504,-9.46731 -0.42316,-5.5952 0.18104,-7.13175 2.80434,-7.13175 0.82687,0 1.87447,0.4471 2.32799,0.99356 0.52777,0.63592 1.407,0.84737 2.44261,0.58745 0.99978,-0.25093 3.55605,0.30073 6.68998,1.44374 4.87279,1.7772 5.10709,1.80178 5.96699,0.62579 0.76117,-1.04096 0.73081,-1.40554 -0.20291,-2.4373 -0.983,-1.0862 -0.99233,-1.3354 -0.0891,-2.3799 1.21431,-1.40412 2.53111,-5.1376 2.53111,-7.17625 0,-0.8125 -0.62871,-2.27656 -1.39714,-3.25345 -1.98235,-2.52015 -1.25691,-3.73698 2.22788,-3.73698 2.87064,0 5.83593,1.42641 5.83593,2.80728 0,0.83133 6.80356,7.13671 10.92483,10.12487 1.508,1.09338 3.49182,2.06539 4.40849,2.16 3.33369,0.3441 9.24328,3.707 10.28502,5.85277 0.54874,1.1303 2.30953,3.48774 3.91285,5.23876 l 2.91516,3.18368 -0.30031,6.81632 -0.30031,6.81632 2.07713,0.77543 c 2.27379,0.84884 2.71792,2.75545 1.34417,5.7705 -0.62957,1.38175 -0.34746,2.31103 2,6.58824 2.47527,4.51007 2.73296,5.42585 2.73296,9.71264 0,2.60319 -0.29804,5.51694 -0.66229,6.47501 -0.78431,2.0629 0.17709,4.76378 3.32363,9.33712 1.13789,1.65386 2.4696,4.3385 2.95937,5.96587 1.05973,3.52124 0.82902,3.70338 -5.17439,4.08487 -3.20008,0.20334 -4.12146,0.54504 -5.21359,1.93346 l -1.32658,1.68647 -2.20775,-1.68393 c -1.8634,-1.42128 -2.26972,-1.52242 -2.6051,-0.64842 -0.28071,0.73152 -0.89092,0.91162 -2.07866,0.61352 -1.84877,-0.46402 -1.85159,-0.45516 -1.09578,3.44294 0.2901,1.49622 0.27782,3.39522 -0.0273,4.22002 -0.4649,1.25675 -0.87885,1.42845 -2.55584,1.06012 -1.70953,-0.37547 -1.93684,-0.27207 -1.5601,0.70972 0.54521,1.42079 -1.3471,2.93949 -3.73639,2.99868 -1.68359,0.0417 -1.68628,0.0501 -0.20591,0.64518 1.69932,0.68305 1.8716,1.34095 0.66666,2.54589 -0.45833,0.45834 -0.83333,2.34484 -0.83333,4.19224 0,2.67897 -0.30364,3.60477 -1.5,4.57353 -0.825,0.66804 -1.5,1.67383 -1.5,2.23509 0,0.56125 -0.3,1.20586 -0.66667,1.43248 -1.00757,0.62271 -0.79878,1.66666 0.33334,1.66666 0.68435,0 1,0.68589 1,2.17297 0,1.48005 0.44296,2.44961 1.38912,3.04049 0.83895,0.52394 1.23392,1.27198 0.99725,1.88873 -0.25397,0.66181 0.0783,1.14416 0.94421,1.37059 1.59391,0.41682 1.56393,0.15241 0.34741,3.06396 -0.54377,1.30142 -1.59377,2.55828 -2.33333,2.793 -0.73956,0.23473 -1.34466,0.81983 -1.34466,1.30022 0,0.4804 -0.44206,1.24033 -0.98236,1.68874 -0.5403,0.4484 -1.18612,1.90142 -1.43516,3.22892 -0.66518,3.54567 -3.32512,9.21097 -4.54437,9.67884 -0.58197,0.22332 -1.34703,1.16593 -1.70014,2.09468 -0.35311,0.92874 -0.87361,1.6388 -1.15666,1.5779 -1.87868,-0.40417 -6.848,3.64498 -6.848,5.57995 0,1.38065 -1.22974,2.02107 -4.07158,2.12039 -1.05896,0.037 -1.92606,0.37265 -1.9269,0.74587 -0.003,1.41787 -3.43562,5.65475 -4.5811,5.65475 -1.71232,0 -6.24254,4.67607 -5.45249,5.62802 0.95109,1.14601 -0.14611,5.03866 -1.42021,5.03866 -0.35362,0 -1.09296,0.45 -1.64296,1 -0.55,0.55 -1.57856,1 -2.28571,1 -1.35814,0 -1.59643,1.29727 -0.67289,3.66319 0.58278,1.49297 -1.57225,5.00348 -3.07153,5.00348 -0.48105,0 -0.87463,0.6 -0.87463,1.33333 0,1.71896 -1.45532,1.70685 -3.02276,-0.0251 -1.05997,-1.17126 -1.3077,-1.2186 -1.79744,-0.34348 -0.60779,1.08606 1.59111,4.67682 3.25494,5.3153 1.00321,0.38496 1.24406,2.38666 0.28717,2.38666 -0.33628,0 -0.93805,1.52304 -1.33727,3.38453 -0.39922,1.86149 -1.01266,3.92044 -1.36322,4.57545 -0.45704,0.854 -0.26732,1.91673 0.67061,3.75644 0.71939,1.411016 1.30797,3.084366 1.30797,3.718526 0,1.73317 -1.41814,2.26273 -2.41363,0.90131 -0.67729,-0.92626 -1.08743,-1.02698 -1.79399,-0.44058 -0.66632,0.553 -0.79166,1.5793 -0.45986,3.76558 0.25086,1.65298 0.31693,3.00541 0.14683,3.00541 -0.1701,0 0.0545,0.43839 0.49924,0.9742 0.60141,0.72465 0.62702,1.53581 0.1,3.16667 -0.45946,1.42171 -0.49501,3.11698 -0.10114,4.82233 0.33407,1.44643 0.44042,2.90003 0.23635,3.23023 -0.20408,0.33021 -0.073,1.24677 0.29124,2.0368 1.88717,4.09304 2.11189,5.05515 1.30317,5.5793 -0.49217,0.31898 0.23454,0.65414 1.85847,0.85714 2.19225,0.27403 2.67023,0.59387 2.68669,1.7978 0.0273,1.99263 0.62228,2.43648 1.63327,1.21831 1.22304,-1.47367 4.01337,-1.32655 4.01337,0.21161 0,1.44996 1.91058,3.4642 5.87696,6.19583 2.55542,1.75991 3.50838,3.84279 1.5637,3.41778 -0.3993,-0.0873 -0.5547,0.28773 -0.34534,0.83333 0.20937,0.5456 0.87357,1.0377 1.47601,1.09354 0.60243,0.0559 1.48596,0.13337 1.96339,0.17226 0.47743,0.0389 1.42692,1.31899 2.10999,2.84467 0.68307,1.52567 1.88787,3.11965 2.67734,3.54216 1.35252,0.72385 1.37415,0.86168 0.37464,2.38712 -0.9704,1.48102 -0.97011,1.61892 0.003,1.61892 1.6665,0 0.84334,2.30147 -0.91257,2.55147 -1.29361,0.18418 -1.40025,0.37701 -0.68502,1.2388 0.70025,0.84376 0.62981,1.17956 -0.40639,1.93724 -0.83357,0.60952 -1.51566,0.69896 -2.03617,0.26698 -1.02423,-0.85004 -1.84152,-0.0165 -0.98993,1.00964 0.45549,0.54883 0.24649,1.16637 -0.67785,2.00288 -1.23951,1.12175 -1.25778,1.29626 -0.25196,2.40767 1.32429,1.46333 0.74184,4.58407 -0.93753,5.02323 -0.6251,0.16347 -1.47154,1.00708 -1.881,1.87471 -0.60064,1.27277 -0.56841,1.50994 0.1669,1.22778 1.3348,-0.51221 1.11421,0.96817 -0.55346,3.71425 -1.77301,2.9195 -2.64168,3.57668 -3.52962,2.67027 -0.45432,-0.46377 -0.24001,-1.05663 0.66109,-1.82882 1.76447,-1.51193 1.96217,-2.76279 0.43682,-2.76279 -1.32262,0 -3.43666,1.96095 -3.43666,3.1878 0,1.42075 -1.54921,4.14554 -2.35701,4.14554 -0.44531,0 -0.99363,-0.91988 -1.2185,-2.04419 -0.43418,-2.17094 -1.75782,-2.10805 -1.75782,0.0835 0,0.7117 -0.29059,1.29399 -0.64575,1.29399 -0.35515,0 -0.47306,0.45 -0.26201,1 0.236,0.61499 -10e-4,1 -0.61626,1 -0.55,0 -1.17268,0.45 -1.38374,1 -0.22166,0.57766 -1.21828,1 -2.35973,1 -1.40375,0 -2.10107,0.39407 -2.40787,1.36073 -0.25861,0.81479 -1.22558,1.51946 -2.41018,1.75638 l -1.97831,0.39566 1.40594,1.49656 1.40595,1.49656 -1.73448,1.36434 -1.73449,1.36434 1.86047,0.8917 c 2.10075,1.00686003 2.62721,3.6009 0.69994,3.44883 -0.90201,-0.0712 -1.07189,0.26157 -0.76262,1.49379 0.2577,1.02676 0.0755,1.70908 -0.51716,1.93649 -0.93622,0.35927 -0.98888,2.85193 -0.13924,6.59102 0.41384,1.82124 0.33938,1.90487 -1.32432,1.4873 -2.12314,-0.53287 -2.17807,-0.20603 -0.38791,2.30801 1.23215,1.7304 1.27402,2.0749 0.40327,3.31806 -0.63047,0.90014 -0.85048,2.2904 -0.62659,3.95959 0.24544,1.82989 -0.0747,3.43949 -1.10921,5.57645 -1.30337,2.6924 -1.36842,3.29046 -0.62708,5.76485 0.57533,1.92027 0.61214,2.89708 0.12091,3.20841 -0.38843,0.24618 -0.91544,1.7976 -1.17112,3.4476 l -0.46487,3 1.68456,-2 c 1.80472,-2.14265 3.89528,-6.88488 5.08478,-11.53434 0.74,-2.89242 2.20867,-4.18744 3.39901,-2.9971 0.65181,0.65181 0.30765,1.93686 -5.49893,20.53144 -1.48849,4.76666 -2.99886,9.64166 -3.35636,10.83333 -0.36655,1.22183 -1.09652,2.16667 -1.67392,2.16667 -0.87205,0 -0.98557,-1.03564 -0.76542,-6.98288 0.14216,-3.84058 0.054,-6.76558 -0.19589,-6.5 -1.01615,1.07988 -3.91308,8.90246 -3.93641,10.62946 -0.0151,1.11918 -0.9267,2.90728 -2.30113,4.51368 l -2.27611,2.66027 -1.44466,-1.55066 c -1.0619,-1.13982 -1.82111,-1.42017 -2.86553,-1.05815 -0.78147,0.27088 -4.19587,0.42083 -7.58753,0.33322 -4.88736,-0.12626 -6.1663,0.0323 -6.1663,0.76455 0,0.50811 0.31271,1.23655 0.69492,1.61876 1.21769,1.21769 -0.98763,2.48547 -2.71521,1.56089 -1.20522,-0.64502 -1.69314,-0.53114 -3.00505,0.70133 -0.86141,0.80925 -2.04334,2.47685 -2.6265,3.70578 -0.99567,2.09822 -0.97765,2.39641 0.29577,4.89252 1.7111,3.35403 1.70594,4.75329 -0.0257,6.95465 -1.48797,1.89166 -2.97351,2.17365 -5.46662,1.03771 -1.20018,-0.54684 -2.52385,-0.45227 -5.53137,0.39519 -6.33253,1.7844 -7.28298,1.86673 -8.23984,0.71378 z m 4.48599,-0.60022 c 3.20578,-1.56134 9.03867,-2.74122 9.32374,-1.886 0.49702,1.49105 4.05301,0.85345 5.2262,-0.93707 1.05826,-1.6151 1.03705,-1.86369 -0.42545,-4.98617 -1.51278,-3.22984 -1.51883,-3.33156 -0.35251,-5.91801 1.6272,-3.60847 4.77107,-6.58647 5.83264,-5.52491 0.43758,0.43759 1.19616,0.79561 1.68573,0.79561 0.68657,0 0.72526,-0.30805 0.16917,-1.34711 -1.02822,-1.92124 -0.29073,-2.65289 2.67404,-2.65289 1.42339,0 2.75226,-0.26583 2.95306,-0.59072 0.20294,-0.32835 1.46783,-0.21161 2.84797,0.26286 1.62386,0.55825 3.02543,0.64731 4.051,0.25739 2.46038,-0.93544 4.68906,-0.70221 5.39818,0.56492 0.35738,0.63861 0.76235,1.01361 0.89992,0.83333 0.13758,-0.18028 1.06008,-1.3258 2.05001,-2.5456 0.99361,-1.22435 1.79986,-3.04949 1.79986,-4.07445 0,-1.90556 3.49751,-10.31848 4.56363,-10.97738 0.32711,-0.20217 0.63692,-2.23324 0.68847,-4.51348 0.0515,-2.28024 0.40247,-4.33672 0.77984,-4.56994 0.41186,-0.25455 0.51023,-1.52404 0.24609,-3.17588 -0.3391,-2.1206 -0.1156,-3.37429 0.9743,-5.46531 1.58098,-3.03317 1.80464,-5.34877 0.63009,-6.52332 -0.60122,-0.60122 -0.48816,-1.11142 0.48444,-2.18613 1.25009,-1.38134 1.24603,-1.44128 -0.27709,-4.08775 -1.13844,-1.97808 -1.34956,-2.88209 -0.80114,-3.43051 0.54842,-0.54842 1.1171,-0.51204 2.158,0.13801 1.27647,0.79717 1.3621,0.76327 0.8842,-0.35003 -0.29103,-0.67797 -0.58165,-2.15077 -0.64582,-3.27288 -0.0642,-1.12211 -0.34973,-2.4173 -0.63458,-2.8782 -0.33579,-0.54332 -0.0465,-0.96128 0.82254,-1.18854 1.25952,-0.32938 1.28242,-0.48945 0.3792,-2.65114 -0.52869,-1.26534 -0.784,-2.58739997 -0.56737,-2.93792997 0.21664,-0.35053 0.0762,-0.63732003 -0.31212,-0.63732003 -0.38831,0 -0.70601,-0.45 -0.70601,-1 0,-0.55 0.41326,-1 0.91837,-1 0.5051,0 1.26639,-0.41935 1.69175,-0.93187 0.61195,-0.73736 0.41372,-1.2148 -0.94964,-2.28722 -1.32278,-1.0405 -2.56748,-1.32309 -5.35842,-1.21652 -2.4895,0.0951 -3.6354,-0.11722 -3.6354,-0.67345 0,-1.43909 1.22219,-1.63643 5.42013,-0.8752 5.09559,0.92401 7.0965,0.48084 7.64199,-1.69256 0.32578,-1.29799 0.84329,-1.65651 2.39111,-1.65651 2.32221,0 4.04439,-1.46284 3.47353,-2.95047 -0.24503,-0.63855 -0.0469,-1.04953 0.50584,-1.04953 0.49972,0 1.30697,-0.9 1.79388,-2 1.16448,-2.63077 1.94748,-2.5275 2.48308,0.3275 0.49339,2.62997 1.2567,2.56894 1.93268,-0.15454 0.58488,-2.35644 2.89756,-4.84646 4.0799,-4.39276 1.3042,0.50047 2.7854,-2.87266 1.72644,-3.93162 -0.83466,-0.83467 -1.08135,-3.18192 -0.3344,-3.18192 0.24612,0 0.98495,0.48639 1.64183,1.08086 1.32375,1.19797 3.24399,0.81618 3.24399,-0.64497 0,-1.56152 -1.84536,-2.72749 -2.9136,-1.84093 -0.50248,0.41703 -2.07748,0.82876 -3.5,0.91497 -2.1942,0.13297 -2.5864,-0.0455 -2.5864,-1.17659 0,-0.99069 0.42175,-1.31584 1.64114,-1.26524 1.18187,0.0491 2.80888,-1.117 5.81383,-4.16666 2.29497,-2.32912 4.61376,-4.23477 5.15285,-4.23477 0.53909,0 1.16557,-0.3 1.39218,-0.66667 0.23642,-0.38252 -0.38614,-0.6757 -1.46065,-0.68786 -1.58951,-0.018 -1.7178,-0.14401 -0.84841,-0.83334 0.56334,-0.44667 0.91655,-1.33608 0.7849,-1.97646 -0.17779,-0.86478 0.0732,-1.06622 0.97573,-0.783 1.15399,0.36216 1.15324,0.34183 -0.0149,-0.40421 -0.67647,-0.43205 -1.7282,-1.8797 -2.33717,-3.217 -0.64881,-1.42478 -1.65767,-2.51358 -2.43672,-2.6298 -2.41614,-0.36045 -2.91619,-0.71322 -4.01046,-2.82931 -1.20599,-2.33213 -0.88994,-3.27608 0.66485,-1.98572 0.55887,0.46381 1.01612,0.66032 1.01612,0.4367 0,-0.22364 -1.275,-1.19846 -2.83334,-2.16627 -3.05206,-1.89551 -5.77066,-4.74564 -5.80936,-6.09039 -0.0371,-1.28812 -1.17394,-0.98718 -2.28995,0.60615 -0.84282,1.20329 -1.17719,1.29929 -2.03781,0.58503 -0.56623,-0.46994 -1.02952,-1.41771 -1.02952,-2.10614 3e-5,-0.92648 -0.48499,-1.25171 -1.86664,-1.25171 -2.3789,0 -3.72408,-1.21989 -2.70251,-2.45081 0.53557,-0.64532 0.51588,-1.14346 -0.0733,-1.85332 -0.44312,-0.53394 -0.63316,-1.24994 -0.4223,-1.59113 0.21086,-0.34118 -0.077,-1.00239 -0.63961,-1.46935 -0.56265,-0.46695 -0.86852,-1.25156 -0.67972,-1.74358 0.18881,-0.49201 0.10523,-2.16895 -0.18573,-3.72652 -0.34924,-1.86964 -0.25,-3.51157 0.29203,-4.83196 0.54736,-1.33334 0.60139,-2.26667 0.16208,-2.80002 -0.81259,-0.98656 -1.20761,-8.12749 -0.47465,-8.58048 0.29266,-0.18088 0.36311,-0.76926 0.15656,-1.30752 -0.54908,-1.43088 0.88445,-1.19464 2.48933,0.41024 2.02138,2.02138 2.22261,1.18835 0.56486,-2.33836 -1.44168,-3.067036 -1.44401,-3.131646 -0.24897,-6.906596 0.66348,-2.09582 1.17042,-4.32968 1.12654,-4.96413 -0.0439,-0.63445 0.17996,-1.31408 0.49745,-1.5103 0.31749,-0.19622 -0.3016,-1.31899 -1.37576,-2.49504 -2.09354,-2.29213 -2.50721,-4.55125 -1.0542,-5.75713 0.68575,-0.56912 1.18433,-0.43044 2.10333,0.58503 1.4319,1.58225 2.3312,1.70993 2.3312,0.33098 0,-0.55 0.4155,-1 0.92332,-1 0.50783,0 1.3861,-0.70628 1.95171,-1.56951 0.98217,-1.49898 0.96971,-1.91058 -0.20491,-6.76382 -0.34177,-1.41213 0.036,-1.79718 0.98806,-1.00705 1.22753,1.01877 3.00848,0.41675 3.00848,-1.01695 0,-0.74754 0.38214,-0.94457 1.27957,-0.65974 1.72215,0.54659 2.64033,-2.06663 1.12384,-3.19856 -0.91785,-0.68511 -0.69566,-1.16407 1.75567,-3.78438 1.54358,-1.65 2.7261,-3.375 2.62782,-3.83333 -0.21904,-1.02154 1.34742,-1.09902 2.33113,-0.11531 0.78943,0.78943 2.98337,-1.81114 4.17736,-4.95155 0.41324,-1.08691 1.0137,-1.60602 1.59822,-1.38172 0.69817,0.26791 0.85338,-0.0744 0.61029,-1.34607 -0.3895,-2.03753 0.80778,-2.28101 1.82944,-0.37202 0.79468,1.48489 2.34192,1.85263 1.79468,0.42655 -0.36673,-0.95568 3.05352,-4.54148 5.03865,-5.28252 0.64167,-0.23954 1.16667,-1.04493 1.16667,-1.78978 0,-0.74484 0.3,-1.35425 0.66666,-1.35425 0.36667,0 0.66666,0.29 0.66666,0.64445 0,0.35444 0.98133,-0.33689 2.18073,-1.5363 1.35504,-1.35504 2.64601,-3.68152 3.40956,-6.14444 1.66968,-5.38579 3.86719,-9.7526 5.0766,-10.08806 0.55012,-0.1526 1.34238,-1.00248 1.76058,-1.88863 0.59972,-1.27079 0.56446,-1.77377 -0.16689,-2.38073 -0.50999,-0.42325 -0.92725,-1.32226 -0.92725,-1.9978 0,-0.67554 -0.6,-1.54936 -1.33333,-1.94182 -0.80941,-0.43318 -1.33333,-1.39588 -1.33333,-2.44996 0,-0.95502 -0.51368,-2.112 -1.1415,-2.57107 -0.99524,-0.72774 -1.02034,-0.98069 -0.19589,-1.97409 0.52009,-0.62666 1.01702,-1.62591 1.10429,-2.22054 0.0873,-0.59463 0.57282,-1.38937 1.07898,-1.76608 1.41641,-1.05416 2.51087,-4.72818 1.6615,-5.57754 -0.49634,-0.49634 -0.38865,-1.18931 0.36314,-2.33668 1.00954,-1.54074 0.99267,-1.65098 -0.30447,-1.99018 -1.77688,-0.46467 -1.25511,-2.01754 0.82228,-2.4472 0.88641,-0.18333 2.21167,-0.691 2.945,-1.12816 l 1.33333,-0.79483 -1.33333,-0.99089 c -1.26298,-0.9386 -1.26953,-1.01562 -0.12415,-1.45948 0.66504,-0.25772 1.94004,-0.13558 2.83333,0.27143 0.89329,0.40701 1.62415,0.47145 1.62415,0.14319 0,-0.32824 -0.375,-0.74897 -0.83333,-0.93495 -0.64259,-0.26074 -0.65047,-0.46833 -0.0344,-0.90696 0.46592,-0.33174 0.76589,-2.0191 0.71967,-4.04821 -0.0888,-3.89935 0.32421,-4.72149 1.76942,-3.52207 1.18283,0.98166 2.61546,0.28299 2.11169,-1.02983 -0.52055,-1.35653 0.14825,-1.15098 2.38854,0.7341 2.20465,1.85509 3.87842,2.1635 3.87842,0.71464 0,-0.66627 1.15059,-1.07701 3.83333,-1.36839 2.10834,-0.229 4.50524,-0.55553 5.32645,-0.72562 l 1.49311,-0.30924 -1.2229,-3.21841 c -0.67259,-1.77013 -2.23746,-4.69019 -3.47747,-6.48903 -2.40869,-3.49418 -2.41741,-3.56714 -1.58803,-13.28117 0.39024,-4.57046 0.33188,-4.80632 -2.55683,-10.33333 -2.76555,-5.29138 -2.89959,-5.78508 -2.07865,-7.65612 1.31059,-2.98702 1.13956,-3.66564 -1.12257,-4.45422 l -2.06023,-0.7182 0.20578,-7.08045 0.2058,-7.08046 -3.01593,-3 c -1.65875,-1.65 -3.39883,-3.94644 -3.86682,-5.1032 -0.6604,-1.63234 -1.74403,-2.49054 -4.84025,-3.83333 -2.19414,-0.95158 -4.5784,-1.73014 -5.29835,-1.73014 -1.97641,0 -15.24459,-10.8541 -15.26136,-12.48463 -0.0164,-1.59421 -3.09294,-2.95579 -5.61126,-2.48335 l -2.37977,0.44644 1.32465,1.68401 c 1.72192,2.18908 1.72585,6.43533 0.009,9.80272 -1.21084,2.375 -1.22845,2.64416 -0.22124,3.38064 1.00027,0.73142 0.96769,0.97805 -0.37908,2.86942 l -1.47342,2.06922 -4.55266,-1.64223 c -2.50392,-0.90323 -5.72456,-1.64224 -7.15695,-1.64224 -1.43239,0 -3.24849,-0.45117 -4.03577,-1.00261 -1.28557,-0.90045 -1.54534,-0.88871 -2.54921,0.11515 -0.92909,0.92909 -1.04352,1.91422 -0.67794,5.83595 0.37063,3.97579 0.21899,5.21645 -0.96366,7.88485 -0.77192,1.74166 -1.48117,3.16666 -1.57611,3.16666 -0.0949,0 -1.18918,-0.75 -2.43166,-1.66666 -2.90637,-2.14426 -3.81882,-2.07258 -6.71838,0.52775 -1.89821,1.70232 -2.75312,3.32962 -4.1882,7.97225 -1.47568,4.77393 -2.04399,5.83333 -3.12925,5.83333 -0.74509,0 -1.63893,0.68661 -2.04012,1.56714 -0.58237,1.27816 -0.39534,2.19608 1.01429,4.97784 2.41414,4.76407 2.28038,7.50315 -0.5186,10.61977 -1.2358,1.37605 -3.0121,4.00192 -3.94733,5.83525 -0.93522,1.83333 -2.48212,4.37748 -3.43755,5.65365 -1.46354,1.95488 -1.67117,2.76023 -1.31828,5.11344 0.40307,2.6879 0.31491,2.8684 -2.34048,4.79196 -1.51764,1.09937 -3.9598,2.20167 -5.42703,2.44956 l -2.66769,0.4507 0.41387,3.77034 c 0.54712,4.98423 -0.69542,18.6777 -1.91901,21.14862 -0.53248,1.07528 -1.63151,3.45302 -2.4423,5.28386 -0.81078,1.83084 -2.8235,5.55163 -4.4727,8.26841 -2.42497,3.99475 -2.81453,5.04259 -2.03655,5.47797 3.2296,1.80737 3.94232,2.97495 4.23487,6.93751 0.21843,2.95854 -0.009,4.57016 -0.88259,6.24629 -0.64733,1.24244 -1.32697,2.27271 -1.5103,2.28949 -0.18333,0.0168 -2.64801,-0.36544 -5.47706,-0.84937 -6.17933,-1.05701 -8.06325,-0.50104 -10.52294,3.10544 -0.91667,1.34405 -2.79167,3.80737 -4.16667,5.47404 -1.91604,2.32248 -2.5,3.62047 -2.5,5.55683 0,1.61712 -0.63597,3.48754 -1.76689,5.19647 l -1.7669,2.66995 1.17313,3.87456 c 1.0532,3.4785 1.07175,4.073 0.18144,5.81577 -0.55032,1.07721 -0.8508,2.87144 -0.67514,4.03129 0.17411,1.14956 -0.0259,2.73001 -0.44448,3.51211 -0.58996,1.10236 -0.50464,2.61514 0.37956,6.72983 1.07073,4.98269 1.07251,5.78647 0.0291,13.12189 l -1.11155,7.814076 2.13167,2.19932 c 1.17242,1.20963 2.48295,2.19933 2.9123,2.19933 0.42935,0 1.6098,1.25295 2.62322,2.78435 1.70392,2.57478 1.78951,3.01382 1.1372,5.83333 -1.3488,5.83006 -1.79416,6.47131 -5.06672,7.29535 -2.95124,0.74313 -3.02309,0.82276 -2.6391,2.92544 0.2171,1.18884 1.10913,4.28408 1.9823,6.87832 1.81575,5.3947 1.96516,7.43971 0.67957,9.30154 -0.4994,0.72325 -1.06176,2.95661 -1.24969,4.96301 -0.29965,3.19917 -0.65273,3.91689 -2.86973,5.83333 -1.39043,1.20194 -3.21036,2.18533 -4.0443,2.18533 -1.83097,0 -2.6059,1.09295 -2.36994,3.34252 0.11899,1.1344 -0.45573,2.28177 -1.77703,3.54765 -1.75807,1.68434 -1.89605,2.1157 -1.38301,4.32375 1.62965,7.01375 -0.61124,17.09021 -3.70227,16.64779 -0.98113,-0.14043 -1.53705,-0.94172 -1.9854,-2.86171 -0.787,-3.37023 -0.65831,-3.24905 -2.35017,-2.21286 -1.3813,0.84599 -1.41892,1.17191 -0.98642,8.54619 0.2473,4.21667 0.48931,8.49498 0.5378,9.50737 0.0605,1.26319 0.37458,1.7308 1.00106,1.4904 0.66985,-0.25705 0.82673,0.10038 0.58927,1.34255 -0.28156,1.47288 -0.14029,1.63588 1.08711,1.25434 1.39456,-0.4335 1.39617,-0.42223 0.14074,0.98341 -1.67494,1.87533003 -0.58652,1.83270003 1.42365,-0.0557 1.24631,-1.17085 1.80896,-1.32503 2.70963,-0.7425 1.6345,1.05716 1.32711,8.88907 -0.46831,11.93209 -1.09503,1.85594 -1.15457,2.32436 -0.37741,2.96935 0.7244,0.6012 0.75518,1.03406 0.14317,2.01404 -0.64402,1.03124 -0.51403,1.53086 0.74775,2.87397 1.32295,1.40822 1.46474,2.0428 1.0598,4.74317 -0.41354,2.75765 -0.33118,3.09264 0.71357,2.9025 0.87316,-0.1589 1.25093,0.30646 1.44907,1.78507 0.45439,3.39083 4.37632,12.55779 6.27489,14.66667 0.9903,1.1 1.90587,2.6 2.03459,3.33333 0.12872,0.73333 0.91003,1.63065 1.73623,1.99404 2.95305,1.29881 2.8025,6.33927 -0.18934,6.33927 -2.06667,0 -2.23574,1.93351 -0.32063,3.66666 0.73333,0.66363 1.33333,1.61954 1.33333,2.12422 0,1.66261 -2.01666,1.75919 -3.70059,0.17722 -1.98535,-1.86514 -2.13183,-0.75523 -0.34417,2.60777 0.70872,1.33325 2.11216,4.3741 3.11877,6.75743 1.00661,2.38333 2.22675,4.80695 2.71143,5.38583 1.30291,1.55613 1.07042,3.35619 -0.48605,3.76322 -1.13196,0.29601 -1.2918,0.70118 -0.92874,2.3542 0.29713,1.35283 0.14685,2.18146 -0.46606,2.56982 -0.68045,0.43116 -0.57422,0.5768 0.42874,0.58778 0.73334,0.008 2.23334,0.61065 3.33334,1.33915 2.3814,1.57714 1.98699,1.53427 4.19977,0.45655 z m 13.46689,-71.9958 c 0,-0.84658 0.44046,-2.12158 0.9788,-2.83333 0.53834,-0.71175 0.98834,-2.58875 1,-4.17111 0.0136,-1.84586 0.8575,-4.68709 2.35454,-7.92722 1.28333,-2.77761 2.33333,-5.34054 2.33333,-5.6954 0,-0.89406 6.1325,-9.16702 6.79524,-9.16702 0.78063,0 0.66268,1.8958 -0.36425,5.85471 -0.49629,1.91324 -0.72129,3.48321 -0.5,3.48883 0.22129,0.005 0.84041,0.2873 1.37583,0.62596 0.83563,0.52856 0.80315,0.80399 -0.2293,1.94484 -0.66154,0.73099 -1.5888,1.18095 -2.06058,0.99991 -1.07579,-0.41282 -3.53955,3.48607003 -4.10461,6.49555 -0.23307,1.24128 -1.41416,4.43186 -2.62466,7.0902 -1.6981,3.72913 -2.51543,4.83333 -3.57763,4.83333 -0.99365,0 -1.37671,-0.42828 -1.37671,-1.53925 z m 3.96851,-3.3934 c 1.09698,-2.34629 2.27425,-5.51102 2.61616,-7.03272 0.77084,-3.43078997 3.37096,-7.35732 4.87599,-7.36341 1.59053,-0.007 2.1038,-1.14229 0.83662,-1.85143 -0.96529,-0.54022 -0.97065,-0.95333 -0.0577,-4.44952 l 1.00643,-3.85401 -1.56124,1.46671 c -1.57203,1.47684 -2.1374,2.52514 -6.71137,12.44409003 -1.82964,3.96769997 -2.39761,5.95202997 -2.11216,7.37926997 0.26625,1.33126 -0.0193,2.57376 -0.89769,3.90628 -1.40501,2.13137 -1.6696,3.62072 -0.64324,3.62072 0.35952,0 1.5512,-1.91969 2.64817,-4.26598 z m -31.4929,-12.60365 c -0.18354,-0.47829 0.99756,-2.16509 2.62466,-3.74845 2.70918,-2.63633 2.87166,-2.97462 1.92905,-4.01619 -1.41261,-1.56091 -1.29004,-3.58979 0.30402,-5.03239 0.73333,-0.66366 1.33333,-1.70403 1.33333,-2.31194 0,-1.58864 3.7065,-4.94334 4.93913,-4.47034 0.56031,0.21501 1.46291,1.45398 2.00578,2.75327 0.54288,1.29929 1.30236,2.36234 1.68774,2.36234 1.06213,0 0.83791,-4.46751 -0.33839,-6.74223 -0.57149,-1.10514 -0.94649,-2.93275 -0.83333,-4.06137 0.17706,-1.76599 0.50506,-2.08425 2.35308,-2.28315 1.61052,-0.17335 2.32471,0.10027 2.85679,1.09448 0.9927,1.85488 1.87366,1.65355 1.49237,-0.34106 -0.27329,-1.42963 -0.0738,-1.66667 1.40232,-1.66667 1.03863,0 2.00385,0.52863 2.43451,1.33333 0.39247,0.73334 1.14247,1.33334 1.66667,1.33334 0.52419,0 1.27874,0.60848 1.67676,1.35219 0.58028,1.08427 0.44435,1.7073 -0.68601,3.14432 -1.33375,1.69558 -1.34646,1.83835 -0.23605,2.6503 0.91078,0.66598 0.99502,1.03679 0.37613,1.65569 -0.43863,0.43862 -0.7975,1.72064 -0.7975,2.84892 0,2.78516 -3.11322,6.1218 -6.26327,6.71275 -1.60275,0.30068 -2.89583,1.12156 -3.82728,2.42966 -1.73482,2.43633 -3.27314,1.59959 -2.03899,-1.10908 0.67792,-1.48789 0.61594,-1.68475 -0.5305,-1.68475 -0.87998,0 -1.17451,0.3221 -0.91438,1 0.24299,0.63322 -0.009,1 -0.68759,1 -0.58923,0 -1.07132,0.31204 -1.07132,0.69342 0,0.80244 -5.38585,5.95254 -6.238,5.96493 -0.31423,0.005 -0.39864,-0.44169 -0.18759,-0.99169 0.21106,-0.55 0.12989,-1 -0.18037,-1 -0.31027,0 -0.93759,0.45 -1.39404,1 -1.02189,1.2313 -2.41095,1.29466 -2.85773,0.13037 z m 3.15278,-1.49993 c 1.04076,-0.68192 1.72869,-0.79804 2.01202,-0.3396 0.51948,0.84055 4.35959,-1.81216 4.35959,-3.01155 0,-0.44181 0.45278,-0.97705 1.00619,-1.18941 0.5534,-0.21236 0.9284,-0.72238 0.83333,-1.13336 -0.25584,-1.10604 1.80379,-2.23604 3.14058,-1.72307 0.88541,0.33976 1.05323,0.87634 0.70636,2.2584 l -0.45498,1.81275 1.68576,-1.81896 c 0.98329,-1.06098 2.39141,-1.81897 3.37912,-1.81897 3.4055,0 7.64169,-7.79528 5.43524,-10.00173 -0.4738,-0.4738 -0.27983,-1.44787 0.62163,-3.12178 1.08471,-2.01419 1.14634,-2.48774 0.35797,-2.75054 -0.52378,-0.17459 -1.60748,-1.02435 -2.40821,-1.88836 -1.84241,-1.988 -2.30299,-1.97672 -2.30299,0.0564 0,2.53071 -1.37122,2.8162 -3.10703,0.64688 -1.186,-1.4822 -1.55379,-1.66516 -1.55632,-0.7742 -0.002,0.64166 -0.45331,1.16666 -1.00331,1.16666 -1.0876,0 -1.42553,2.99166 -0.40891,3.61996 0.84781,0.52398 1.55706,4.863 1.05399,6.44805 -0.69105,2.1773 -3.12096,1.32703 -4.48106,-1.56801 -0.64599,-1.375 -1.34907,-2.5 -1.56241,-2.5 -0.67827,0 -2.8897,2.96382 -2.91277,3.90376 -0.0122,0.49708 -0.77218,1.79509 -1.68884,2.88449 -1.91961,2.28133 -2.06949,3.09903 -0.66667,3.63733 1.79716,0.68964 1.0541,3.06262 -1.77759,5.67683 -2.88276,2.66135 -2.99507,3.31967 -0.26069,1.52803 z m 47.11953,-19.56611 c -0.5053,-0.32006 -0.71042,-0.91899 -0.45581,-1.33095 0.29009,-0.46939 -0.30999,-0.90362 -1.6073,-1.16308 -3.63191,-0.72638 -1.82904,-1.8993 3.04198,-1.97906 5.50987,-0.0902 6.93988,0.19936 6.93988,1.4053 0,2.42515 -5.54301,4.57256 -7.91875,3.06779 z m 5.71491,-1.70803 1.87051,-1.6437 -2.66667,0.0493 c -1.46667,0.0271 -3.56667,-0.13895 -4.66667,-0.36907 -1.8719,-0.39161 -1.90216,-0.36758 -0.47248,0.37518 0.84014,0.43647 1.38581,1.16289 1.2126,1.61426 -0.83384,2.17297 2.23956,2.15604 4.72271,-0.026 z m 19.70384,-0.82188 c -0.45833,-0.1717 -0.85246,-0.6622 -0.87583,-1.08997 -0.0234,-0.42778 -1.43362,-1.93701 -3.13386,-3.35383 -2.93049,-2.442 -3.26837,-2.55526 -6.49269,-2.1763 -1.87073,0.21987 -4.36049,0.59159 -5.53281,0.82606 -1.21016,0.24202 -2.13148,0.1504 -2.13148,-0.21198 0,-0.35104 1.425,-0.9194 3.16667,-1.26301 2.27847,-0.44951 3.09713,-0.90158 2.91873,-1.61173 -0.13636,-0.54284 -0.40581,-1.58699 -0.59877,-2.32032 -0.31523,-1.19801 -0.16597,-1.16418 1.47051,0.33333 1.51674,1.38793 2.35698,1.62947 5.02404,1.44423 2.03234,-0.14114 3.96086,0.16964 5.27742,0.85046 1.83536,0.9491 2.07474,0.95553 2.07474,0.0558 0,-1.39108 0.89251,-1.27588 2.31793,0.29919 0.65519,0.72397 1.75168,1.49419 2.43665,1.71159 0.68498,0.2174 1.24542,0.78833 1.24542,1.26872 0,0.4804 0.46271,1.25747 1.02825,1.72682 1.42739,1.18464 0.48983,1.83163 -3.02825,2.08977 -1.65,0.12107 -3.3,0.56061 -3.66667,0.97677 -0.36667,0.41615 -1.04167,0.61615 -1.5,0.44444 z m 2.34964,-2.20108 c 0.88595,0 0.8474,-0.17346 -0.22222,-1 -1.26924,-0.9808 -1.2698,-1.01879 -0.0292,-1.97865 0.69569,-0.53825 1.59569,-0.78669 2,-0.55207 0.40431,0.23462 0.13512,-0.25812 -0.59821,-1.09497 -1.10524,-1.26126 -1.37021,-1.33789 -1.54888,-0.44793 -0.27166,1.35306 -0.76214,1.3484 -2.72426,-0.0259 -1.51158,-1.05874 -6.74888,-1.8232 -6.70592,-0.97882 0.0115,0.22644 0.81773,0.9931 1.79156,1.7037 1.21674,0.88784 1.8532,1.04424 2.03461,0.5 0.6567,-1.97016 4.15288,-0.27968 4.15288,2.00797 0,1.50178 -0.52133,1.51178 -2.28084,0.0437 -0.76221,-0.63593 -0.4907,-0.17132 0.60335,1.03248 1.09404,1.2038 2.09404,1.87411 2.22222,1.48958 0.12818,-0.38451 0.71539,-0.69912 1.30491,-0.69912 z m 3.32037,-1.5 c -0.33096,-1.00492 -3.17001,-1.53802 -3.17001,-0.59526 0,0.58234 1.11638,1.10452 2.88889,1.35126 0.30556,0.0425 0.43206,-0.29767 0.28112,-0.756 z m -6.50334,-1.5 c -0.45646,-0.55 -1.15054,-1 -1.54238,-1 -0.39186,0 -0.13012,0.44046 0.58162,0.9788 1.67232,1.26487 1.99889,1.27208 0.96076,0.0212 z m -8.66667,-2.62732 c 0,-0.1617 -0.3,-0.4794 -0.66667,-0.70602 -0.36666,-0.22661 -0.66666,-0.0943 -0.66666,0.29399 0,0.38831 0.3,0.70601 0.66666,0.70601 0.36667,0 0.66667,-0.13229 0.66667,-0.29398 z m -28.614,-37.25334 c -0.39563,-0.39564 -0.71933,-1.10934 -0.71933,-1.58601 0,-0.47667 -0.48499,-0.86667 -1.07776,-0.86667 -0.7764,0 -0.97238,-0.40295 -0.70089,-1.44111 0.20727,-0.79261 0.063,-2.02761 -0.32066,-2.74445 -0.52639,-0.98356 -0.45191,-1.54894 0.30358,-2.30443 1.31973,-1.31973 2.45957,-0.5383 2.47391,1.69601 0.016,2.49731 2.7304,4.96782 4.86855,4.43118 2.19657,-0.5513 2.74774,0.55632 1.04406,2.09814 -1.55503,1.40728 -4.78669,1.8021 -5.87146,0.71734 z m 2.21827,-1.01838 c 0.45001,-0.72814 -2.07019,-3.45077 -3.13024,-3.38166 -0.60442,0.0394 -0.59789,0.13715 0.026,0.38888 0.45833,0.18494 0.83333,0.86126 0.83333,1.50293 0,1.81737 1.47177,2.78293 2.27094,1.48985 z m 2.72906,-0.10096 c 0.22661,-0.36667 -0.0557,-0.66667 -0.62732,-0.66667 -0.57164,0 -1.03934,0.3 -1.03934,0.66667 0,0.36666 0.28229,0.66666 0.62732,0.66666 0.34502,0 0.81273,-0.3 1.03934,-0.66666 z m -5.66666,-6.66667 c 0,-0.36667 -0.3,-0.66667 -0.66667,-0.66667 -0.36667,0 -0.66667,0.3 -0.66667,0.66667 0,0.36667 0.3,0.66667 0.66667,0.66667 0.36667,0 0.66667,-0.3 0.66667,-0.66667 z m -2.66667,-51.999996 c -0.50891,-0.9509 -0.50504,-1.72299 0.0135,-2.69185 0.96121,-1.79605 0.32161,-3.60193 -1.75842,-4.96481 -0.93463,-0.61239 -1.53798,-1.51314 -1.34697,-2.0109 0.1903,-0.4959 -0.0862,-1.2603 -0.61438,-1.69867 -1.1149,-0.92529 -1.28395,-2.63378 -0.26059,-2.63378 0.38487,0 1.65987,0.50951 2.83333,1.13225 1.17346,0.62274 2.65856,1.05388 3.30023,0.9581 0.68773,-0.10267 1.16666,0.25355 1.16666,0.86774 0,0.57305 -0.3,1.04191 -0.66666,1.04191 -0.36667,0 -0.66667,0.30571 -0.66667,0.67937 0,0.38466 0.69572,0.50475 1.60381,0.27684 1.25271,-0.31442 1.70387,-0.0873 2.06087,1.03754 0.60223,1.89746 0.10615,2.29078 -1.56944,1.24434 -1.94996,-1.21776 -2.43155,-0.32283 -1.49981,2.78706 0.8957,2.98958 0.48064,5.30819 -0.95023,5.30819 -0.51239,0 -1.25273,-0.6 -1.6452,-1.33333 z m 1.81872,-2.5 c -0.26576,-1.11111 -0.30323,-1.11111 -0.78688,0 -0.2793,0.64167 -0.2793,1.69167 0,2.33333 0.48365,1.11112 0.52112,1.11112 0.78688,0 0.15347,-0.64166 0.15347,-1.69166 0,-2.33333 z m -0.64328,-6.56068 c -0.0927,-1.12061 -0.78099,-2.05727 -1.95943,-2.66666 -2.45553,-1.26981 -2.97495,-1.18128 -1.65122,0.28143 0.60763,0.67142 0.8796,1.44595 0.60438,1.72117 -0.49345,0.49346 1.5839,2.3914 2.61745,2.3914 0.29248,0 0.46745,-0.7773 0.38882,-1.72734 z m 57.49123,-147.66091 c -2.01667,-0.73959 -4.65018,-1.60012 -5.85224,-1.91229 -2.58786,-0.67204 -4.14776,-1.84332 -4.14776,-3.11442 0,-1.26646 0.39589,-1.1924 5.6859,1.06359 2.55608,1.09008 5.04386,1.99008 5.52838,2 0.48452,0.01 1.33096,0.46804 1.88096,1.01804 0.55,0.55 1.59627,1 2.32506,1 0.72878,0 1.13964,0.3 0.91303,0.66666 -0.60198,0.97403 -2.20922,0.79091 -6.33333,-0.72158 z m -6.66667,-3.94508 c -1.30558,-0.84373 -2.18812,-0.84373 -1.66667,0 0.22662,0.36666 0.91932,0.66207 1.53935,0.65646 0.97151,-0.009 0.98911,-0.0995 0.12732,-0.65646 z m -18.47262,340.666666 c 4.09868,-13.27524 5.94559,-20.08259 5.55467,-20.47351 -0.41923,-0.41923 -1.74872,2.71415 -1.74872,4.12143 0,0.87762 -2.3945,6.08325 -5.83507,12.68541 -1.43998,2.7632 -1.77577,4.4166 -1.96319,9.66667 -0.21293,5.9649 -0.17224,6.19759 0.69958,4 0.50912,-1.28333 1.99085,-5.78333 3.29273,-10 z m -77.20815,-42.68949 c -0.3612,-0.58442 -0.76549,-0.3617 -1.39062,0.76609 -1.32502,2.39047 -1.10369,3.06144 0.48563,1.47213 0.83782,-0.83783 1.20668,-1.75008 0.90499,-2.23822 z m -0.58595,-2.19822 c 1.08095,0.39131 2.35473,-1.44056 1.87356,-2.69446 -0.54763,-1.42708997 -1.3362,-1.36799997 -3.64048,0.27279 -2.04639,1.45716 -2.10272,3.76533 -0.0664,2.72059 0.60502,-0.3104 1.43,-0.44492 1.83331,-0.29892 z m 81.17447,-3.44561997 c -0.21106,-0.55 -0.50164,-1 -0.64574,-1 -0.1441,0 -0.26201,0.45 -0.26201,1 0,0.54999997 0.29059,0.99999997 0.64575,0.99999997 0.35515,0 0.47306,-0.45 0.262,-0.99999997 z m -78.57442,-1 c -0.22661,-0.36667 -0.76932,-0.66208003 -1.20601,-0.65646003 -0.47708,0.006 -0.39485,0.26815003 0.20601,0.65646003 1.28075,0.82768 1.51154,0.82768 1,0 z M -462.00774,-32.990014 c -0.54951,-0.54951 -2.41918,0.3307 -2.41918,1.13891 0,0.49304 0.42631,0.48289 1.39043,-0.0331 0.76474,-0.40927 1.22768,-0.90689 1.02875,-1.10581 z m 2.33253,-2.03029 c 0.82924,-1.05738 0.80566,-1.08096 -0.25171,-0.25171 -0.64167,0.50323 -1.16667,1.02823 -1.16667,1.16667 0,0.54869 0.54746,0.19554 1.41838,-0.91496 z m -5.21118,75.41168 c -0.2297,-0.59856 -0.0617,-1.65827 0.37337,-2.35489 0.62464,-1.00021 0.57055,-1.91589 -0.25717,-4.35391 -0.59612,-1.75581 -0.86926,-3.90192 -0.63332,-4.97612 0.22816,-1.03885 0.0589,-2.96724 -0.37607,-4.28532 -0.74864,-2.26841 -0.67859,-2.51239 1.31066,-4.56478 1.15587,-1.19255 2.33379,-3.04016 2.61761,-4.1058 0.55623,-2.08848 4.46735,-5.19161 5.86663,-4.65466 0.46661,0.17906 1.03325,0.0265 1.25918,-0.3391 0.22593,-0.36557 0.96727,-0.48805 1.64741,-0.27218 0.83072,0.26366 1.47648,-0.0557 1.96736,-0.97288 0.7696,-1.43802 3.61893,-1.88238 4.36188,-0.68026 0.23288,0.37682 -0.42441,1.53216 -1.46066,2.56742 -5.11356,5.10871 -6.21741,6.71672 -6.21741,9.05712 0,1.62371 0.4104,2.60201 1.33333,3.17839 1.77624,1.10928 1.68174,2.25293 -0.2931,3.5469 -0.89454,0.58612 -1.48471,1.43501 -1.3115,1.8864 0.17322,0.45139 -0.89867,1.91021 -2.38198,3.2418 -1.5562,1.39703 -2.8657,3.26494 -3.09594,4.41613 -0.41234,2.0617 -2.4687,4.75406 -3.63104,4.75406 -0.36389,0 -0.84955,-0.48974 -1.07924,-1.08832 z m 3.20508,-1.81634 c 0.0434,-0.4191 0.0404,-0.99607 -0.007,-1.28214 -0.19227,-1.16748 2.03574,-4.46597 3.92554,-5.81162 1.10984,-0.79028 1.81598,-1.76358 1.56919,-2.1629 -0.2468,-0.39932 0.39706,-1.40043 1.43078,-2.22469 1.75024,-1.39559 1.80348,-1.57467 0.7742,-2.60394 -1.57134,-1.57135 -1.52808,-7.39871 0.0614,-8.26749 0.64167,-0.35073 1.91249,-1.86128 2.82405,-3.35679 0.91156,-1.49551 2.09656,-2.71911 2.63333,-2.71911 0.79689,0 0.81751,-0.1529 0.11239,-0.83333 -0.69519,-0.67085 -1.06201,-0.54085 -1.88132,0.66667 -0.57653,0.84972 -1.70503,1.5 -2.60309,1.5 -0.96476,0 -1.58536,0.39145 -1.58536,1 0,1.3074 -1.07994,1.28859 -1.585,-0.0276 -0.33716,-0.8786 -0.68162,-0.8152 -2.37568,0.43728 -1.08974,0.80568 -2.30197,2.38459 -2.69383,3.50868 -0.39186,1.12409 -1.49479,2.86036 -2.45095,3.85838 -1.6518,1.72412 -1.6995,1.96931 -0.9568,4.91884 0.55104,2.18839 0.5738,3.35472 0.0771,3.95318 -0.73391,0.8843 -0.54149,1.84367 1.12063,5.58712 0.7199,1.62137 0.7919,2.43672 0.26196,2.96666 -0.40194,0.40194 -0.73079,1.11138 -0.73079,1.57654 0,1.0373 1.96769,0.39016 2.07895,-0.68374 z m 11.3278,-40.00689 c -0.57442,-0.69213 -0.52086,-1.10713 0.2225,-1.72406 1.2222,-1.01434 2.37076,-0.36437 2.37076,1.34162 0,1.49537003 -1.48754,1.71475003 -2.59326,0.38244 z m 1.92659,-0.42179 c 0,-0.36666 -0.31771,-0.66666 -0.70601,-0.66666 -0.38831,0 -0.5206,0.3 -0.29399,0.66666 0.22661,0.36667 0.54432,0.66667 0.70601,0.66667 0.1617,0 0.29399,-0.3 0.29399,-0.66667 z"
         id="path172" />
      <text
         xml:space="preserve"
         style="font-size:36.7552px;line-height:1.25;font-family:sans-serif;stroke-width:1.37832"
         x="-434.50732"
         y="-116.62983"
         id="text228"><tspan
           sodipodi:role="line"
           id="tspan226"
           x="-434.50732"
           y="-116.62983"
           style="font-style:normal;font-variant:normal;font-weight:normal;font-stretch:normal;font-family:'Fira Sans Condensed';-inkscape-font-specification:'Fira Sans Condensed, ';stroke-width:1.37832">National Academic Infrastructure for</tspan><tspan
           sodipodi:role="line"
           x="-434.50732"
           y="-69.97274"
           id="tspan234"
           style="font-style:normal;font-variant:normal;font-weight:normal;font-stretch:normal;font-family:'Fira Sans Condensed';-inkscape-font-specification:'Fira Sans Condensed, ';stroke-width:1.37832">Supercomputing in Sweden</tspan></text>
      <text
         xml:space="preserve"
         style="font-size:36.7552px;line-height:1.25;font-family:sans-serif;stroke-width:1.37832"
         x="-434.50732"
         y="-2.6298294"
         id="text294"><tspan
           sodipodi:role="line"
           x="-434.50732"
           y="-2.6298294"
           id="tspan292"
           style="font-style:normal;font-variant:normal;font-weight:normal;font-stretch:normal;font-family:'Fira Sans Condensed';-inkscape-font-specification:'Fira Sans Condensed, ';stroke-width:1.37832">NAISS</tspan></text>
    </g>
  </g>
</svg>
