<?xml version="1.0" encoding="utf-8"?>
<!-- Generator: Adobe Illustrator 19.0.0, SVG Export Plug-In . SVG Version: 6.00 Build 0)  -->
<svg version="1.1" id="layer" xmlns="http://www.w3.org/2000/svg" xmlns:xlink="http://www.w3.org/1999/xlink" x="0px" y="0px"
	 viewBox="-153 -46 652 652" style="enable-background:new -153 -46 652 652;" xml:space="preserve">
<style type="text/css">
	.st0{fill:#0A293B;}
</style>
<g>
	<path class="st0" d="M-7.9,246.6l-48.3-48.3c-6.1-6.1-16-6.1-22.1,0l-48.3,48.3c-2.9,2.9-4.6,6.9-4.6,11.1c0,4.2,1.6,8.2,4.6,11.1
		l48.3,48.4c3,2.8,7,4.5,11.1,4.5c4,0,8-1.6,11.1-4.6l-11-11.1c0,0,0,0,0,0l-48.3-48.3l48.3-48.3l48.3,48.3l-19.8,19.8l11.1,11
		l19.8-19.8c2.9-2.9,4.6-6.9,4.6-11.1C-3.3,253.5-4.9,249.6-7.9,246.6"/>
	<path class="st0" d="M35.1,246.6l-48.3-48.3c-6.1-6.1-16-6.1-22.1,0l11.1,11.1l48.3,48.3L-24.2,306c0,0,0,0,0,0l-48.3-48.3
		l19.7-19.7l-11.1-11.1l-19.7,19.7c-2.9,2.9-4.6,6.9-4.6,11.1c0,4.2,1.6,8.2,4.6,11.1l48.3,48.4h0c3,2.8,7,4.5,11,4.5
		c4,0,8-1.6,11.1-4.6l48.3-48.3c2.9-3,4.6-6.9,4.6-11.1C39.7,253.5,38.1,249.6,35.1,246.6"/>
</g>
<g>
	<path class="st0" d="M116.3,193.6H116c-13.1,0-25.4,5.2-34.6,14.5c-9.2,9.3-14.3,21.7-14.2,34.7l0.1,70.3c0,4.5,3.6,8.5,8.1,8.5h0
		c4.5,0,8.1-4,8.1-8.5l-0.1-70c-0.1-18.2,14.6-33.1,32.8-33.1h0.2c18.1,0,32.9,14.3,32.9,32.4v71.1c0,4.5,3.5,8.1,8,8.1s8-3.6,8-8.1
		v-71.2C165.1,215.4,143.2,193.6,116.3,193.6"/>
</g>
<g>
	<path class="st0" d="M331.1,193.6L331.1,193.6c-4.5,0-8.1,3.6-8.1,8.1l0.2,111.6c0,4.5,3.6,8.4,8.1,8.4h0c4.5,0,8.1-4,8.1-8.4
		l-0.2-111.4C339.2,197.4,335.6,193.6,331.1,193.6"/>
	<path class="st0" d="M462.3,277.9c-4.4-0.8-7.7,2.3-9.4,6.5c-2,5.1-4.9,9.6-10.5,14.1c-6,4.8-13.6,7.2-21.3,7.2
		c-4.4,0-8.7-0.9-12.9-2.5c-4-1.6-7.7-4-10.8-7c-6.5-6.1-10-14.1-10.1-22.5l0-15.9l0-15.9c0-8.5,3.6-16.5,10.1-22.6
		c3.1-3,6.8-5.3,10.8-7c4.1-1.7,8.4-2.5,12.8-2.5c7.5,0,14.8,2.3,20.6,6.5c5.5,4,9.3,9.2,10.9,13.5c1.3,3.6,3.5,6.6,7.6,6.4
		c0.6,0,1.1-0.1,1.7-0.2c2.1-0.4,3.9-1.7,5.1-3.5c1.2-1.8,1.6-4,1.1-6.1c-2-9.2-8-17.7-17.1-23.8c-8.6-5.8-19.2-9-29.8-9.1
		c-0.1,0-0.2,0-0.3,0c-6.4,0-12.7,1.2-18.7,3.7c-5.9,2.4-11.2,5.8-15.8,10.2c-4.7,4.4-8.4,9.6-10.9,15.3c-2.7,6-4.1,12.4-4.2,19
		l0,9.8c0,0.2,0,0.5,0,0.7l0,5.5l0,5.5c0,0.2,0,0.4,0,0.7l0,9.8v0c0,6.6,1.4,12.9,4.2,18.9c2.6,5.7,6.3,10.8,11,15.2
		c4.6,4.3,9.9,7.8,15.8,10.2c6.1,2.5,12.4,3.7,18.9,3.7c11.1,0,22.1-3.6,31-10.1c4.3-3.1,7.9-6.8,10.8-10.9c3-4.4,5-8.8,5.9-13.6
		C469.6,282.9,466.7,278.7,462.3,277.9"/>
</g>
<g>
	<path class="st0" d="M283.4,277.9c-4.4-0.8-7.7,2.4-9.4,6.5c-2,5.1-4.9,9.6-10.5,14.1c-1.1,0.8-2.2,1.6-3.3,2.3
		c-1.2,0.7-2.4,1.3-3.7,1.8c-4.4,1.9-9.3,3-14.5,3c-10.3,0-17.7-4.3-24.2-10.2c-5.5-5-9-11.5-9.9-18.6l81.5-28.8l0-5.7
		c-0.1-13.1-5.2-25.2-14.5-34.4c-9.2-9.1-21.5-14-34.5-14h-0.3c-27,0-48.9,22.1-48.7,49.1l0.1,23c0,0.2,0,7.3,0,7.3
		c0.1,13.1,5.6,25.6,15.5,34.6c9.5,8.6,21.8,13.7,34.8,13.7h0.3c10.7,0,21.1-3.1,29.3-8.4c2.3-1.5,4.3-3.1,6.2-4.9
		c2.4-2.3,4.6-4.7,6.4-7.3c3-4.4,5-8.8,5.9-13.6C290.7,282.9,287.8,278.7,283.4,277.9 M207.6,243c-0.1-18.1,14.6-32.8,32.7-32.8h0.2
		c16.1,0,29.6,11.5,32.4,26.9l-65.2,22.9L207.6,243z"/>
	<path class="st0" d="M-125.9,357.2v-13.9h2c3.7,9.3,4.2,10.6,4.4,11.2h0c-0.1-1.8-0.1-3.9-0.1-6.2v-5h1.6v13.9h-2
		c-3.8-9.7-4.3-11.1-4.5-11.6h0c0.1,1.7,0.1,3.9,0.1,6.4v5.2H-125.9z"/>
	<path class="st0" d="M-99.9,350.2c0,4.8-1.2,7.3-4.2,7.3c-2.9,0-4.1-2.4-4.1-7.2c0-4.8,1.5-7.1,4.2-7.1
		C-101.1,343.1-99.9,345.4-99.9,350.2 M-106.5,350.2c0,3.8,0.8,5.8,2.4,5.8c1.7,0,2.4-1.9,2.4-5.8c0-3.9-0.7-5.5-2.4-5.5
		C-105.7,344.6-106.5,346.5-106.5,350.2"/>
	<path class="st0" d="M-88.4,350.9v6.3h-1.7v-13.9h3.7c2.4,0,3.6,1.3,3.6,3.6c0,2.1-1,2.9-1.8,3.2c1.3,0.5,1.7,1.6,1.7,3.5v0.6
		c0,1.4,0.1,2.2,0.2,2.9h-1.7c-0.2-0.6-0.2-1.8-0.2-3v-0.5c0-2-0.4-2.8-2.2-2.8H-88.4z M-88.4,349.5h1.7c1.7,0,2.3-0.9,2.3-2.5
		c0-1.4-0.6-2.3-2.1-2.3h-1.8V349.5z"/>
	<path class="st0" d="M-73,343.3h3.2c3.3,0,4.7,2.2,4.7,6.6c0,4.7-1.3,7.3-4.9,7.3h-3V343.3z M-71.3,355.8h1.2
		c2.4,0,3.2-1.9,3.2-5.8c0-3.6-0.9-5.2-3.2-5.2h-1.2V355.8z"/>
	<rect x="-55.4" y="343.3" class="st0" width="1.7" height="13.9"/>
	<path class="st0" d="M-36,353.3c-0.1,0.8-0.4,4.1-3.8,4.1c-3.7,0-4.1-3.8-4.1-7.2c0-4.1,1.1-7.1,4.2-7.1c3.4,0,3.6,3.2,3.6,4.1
		h-1.7c0-0.5-0.1-2.5-2-2.5c-2.1,0-2.4,2.8-2.4,5.6c0,2.9,0.3,5.8,2.3,5.8c1.8,0,2-2,2.1-2.6H-36z"/>
	<polygon class="st0" points="-5.1,350.7 -9.7,350.7 -9.7,355.7 -4.6,355.7 -4.8,357.2 -11.4,357.2 -11.4,343.3 -4.9,343.3 
		-4.9,344.9 -9.7,344.9 -9.7,349.2 -5.1,349.2 	"/>
	<rect x="4.1" y="349.3" class="st0" width="4.2" height="1.5"/>
	<rect x="17.6" y="343.3" class="st0" width="1.7" height="13.9"/>
	<path class="st0" d="M29.6,357.2v-13.9h2c3.7,9.3,4.2,10.6,4.4,11.2h0c-0.1-1.8-0.1-3.9-0.1-6.2v-5h1.6v13.9h-2
		c-3.8-9.7-4.3-11.1-4.5-11.6h0c0.1,1.7,0.1,3.9,0.1,6.4v5.2H29.6z"/>
	<polygon class="st0" points="47.8,343.3 54.3,343.3 54.3,344.9 49.5,344.9 49.5,349.3 54,349.3 54,350.8 49.5,350.8 49.5,357.2 
		47.8,357.2 	"/>
	<path class="st0" d="M65.3,350.9v6.3h-1.7v-13.9h3.7c2.4,0,3.6,1.3,3.6,3.6c0,2.1-1,2.9-1.8,3.2c1.3,0.5,1.7,1.6,1.7,3.5v0.6
		c0,1.4,0.1,2.2,0.2,2.9h-1.7c-0.2-0.6-0.2-1.8-0.2-3v-0.5c0-2-0.4-2.8-2.2-2.8H65.3z M65.3,349.5h1.7c1.7,0,2.3-0.9,2.3-2.5
		c0-1.4-0.6-2.3-2.1-2.3h-1.8V349.5z"/>
	<path class="st0" d="M82.5,353l-1,4.2h-1.7l3.3-13.9h2.2l3.4,13.9H87l-1-4.2H82.5z M85.7,351.5c-0.8-3.3-1.3-5.4-1.5-6.5h0
		c-0.2,1.2-0.7,3.6-1.4,6.5H85.7z"/>
	<path class="st0" d="M99.2,353.5c0.1,1.4,0.8,2.5,2.2,2.5c1.4,0,2.1-0.8,2.1-2.3c0-1.4-0.6-2.2-2.5-3.1c-2.2-1-3.2-2-3.2-4
		c0-2,1.3-3.5,3.6-3.5c2.8,0,3.5,2,3.5,3.6h-1.7c-0.1-0.7-0.3-2.2-1.9-2.2c-1.3,0-1.8,0.9-1.8,1.9c0,1.3,0.6,1.9,2.3,2.7
		c2.4,1.2,3.4,2.3,3.4,4.4c0,2.2-1.3,3.8-3.9,3.8c-2.9,0-3.8-1.9-3.9-3.9H99.2z"/>
	<polygon class="st0" points="116.6,344.9 113.6,344.9 113.6,343.3 121.4,343.3 121.4,344.9 118.3,344.9 118.3,357.2 116.6,357.2 	
		"/>
	<path class="st0" d="M132.2,350.9v6.3h-1.7v-13.9h3.7c2.4,0,3.6,1.3,3.6,3.6c0,2.1-1,2.9-1.8,3.2c1.3,0.5,1.7,1.6,1.7,3.5v0.6
		c0,1.4,0.1,2.2,0.2,2.9h-1.7c-0.2-0.6-0.2-1.8-0.2-3v-0.5c0-2-0.4-2.8-2.2-2.8H132.2z M132.2,349.5h1.7c1.7,0,2.3-0.9,2.3-2.5
		c0-1.4-0.6-2.3-2.1-2.3h-1.8V349.5z"/>
	<path class="st0" d="M149.2,343.3v9.7c0,1.5,0.4,2.9,2.2,2.9c1.8,0,2.2-1.2,2.2-2.9v-9.7h1.7v9.7c0,2.5-0.9,4.4-3.9,4.4
		c-2.9,0-3.9-1.7-3.9-4.3v-9.8H149.2z"/>
	<path class="st0" d="M172.8,353.3c-0.1,0.8-0.4,4.1-3.8,4.1c-3.7,0-4.1-3.8-4.1-7.2c0-4.1,1.1-7.1,4.2-7.1c3.4,0,3.6,3.2,3.6,4.1
		h-1.7c0-0.5-0.1-2.5-2-2.5c-2.1,0-2.4,2.8-2.4,5.6c0,2.9,0.3,5.8,2.3,5.8c1.8,0,2-2,2.1-2.6H172.8z"/>
	<polygon class="st0" points="184.2,344.9 181.2,344.9 181.2,343.3 189,343.3 189,344.9 185.9,344.9 185.9,357.2 184.2,357.2 	"/>
	<path class="st0" d="M199.7,343.3v9.7c0,1.5,0.4,2.9,2.2,2.9c1.8,0,2.2-1.2,2.2-2.9v-9.7h1.7v9.7c0,2.5-0.9,4.4-3.9,4.4
		c-2.9,0-3.9-1.7-3.9-4.3v-9.8H199.7z"/>
	<path class="st0" d="M217.6,350.9v6.3h-1.7v-13.9h3.7c2.4,0,3.6,1.3,3.6,3.6c0,2.1-1,2.9-1.8,3.2c1.3,0.5,1.7,1.6,1.7,3.5v0.6
		c0,1.4,0.1,2.2,0.2,2.9h-1.7c-0.2-0.6-0.2-1.8-0.2-3v-0.5c0-2-0.4-2.8-2.2-2.8H217.6z M217.6,349.5h1.7c1.7,0,2.3-0.9,2.3-2.5
		c0-1.4-0.6-2.3-2.1-2.3h-1.8V349.5z"/>
	<polygon class="st0" points="239.3,350.7 234.7,350.7 234.7,355.7 239.8,355.7 239.6,357.2 233,357.2 233,343.3 239.5,343.3 
		239.5,344.9 234.7,344.9 234.7,349.2 239.3,349.2 	"/>
	<path class="st0" d="M272,353.3c-0.1,0.8-0.4,4.1-3.8,4.1c-3.7,0-4.1-3.8-4.1-7.2c0-4.1,1.1-7.1,4.2-7.1c3.4,0,3.6,3.2,3.6,4.1
		h-1.7c0-0.5-0.1-2.5-2-2.5c-2.1,0-2.4,2.8-2.4,5.6c0,2.9,0.3,5.8,2.3,5.8c1.8,0,2-2,2.1-2.6H272z"/>
	<path class="st0" d="M289.4,350.2c0,4.8-1.2,7.3-4.2,7.3c-2.9,0-4.1-2.4-4.1-7.2c0-4.8,1.5-7.1,4.2-7.1
		C288.2,343.1,289.4,345.4,289.4,350.2 M282.8,350.2c0,3.8,0.8,5.8,2.4,5.8c1.7,0,2.4-1.9,2.4-5.8c0-3.9-0.7-5.5-2.4-5.5
		C283.6,344.6,282.8,346.5,282.8,350.2"/>
	<polygon class="st0" points="299.1,343.3 300.8,343.3 300.8,355.7 305.8,355.7 305.5,357.2 299.1,357.2 	"/>
	<polygon class="st0" points="314.7,343.3 316.4,343.3 316.4,355.7 321.4,355.7 321.1,357.2 314.7,357.2 	"/>
	<path class="st0" d="M332.5,353l-1,4.2h-1.7l3.3-13.9h2.2l3.4,13.9h-1.8l-1-4.2H332.5z M335.7,351.5c-0.8-3.3-1.3-5.4-1.5-6.5h0
		c-0.2,1.2-0.7,3.6-1.4,6.5H335.7z"/>
	<path class="st0" d="M347.8,343.3h3.7c2.1,0,3.4,1.3,3.4,3.4c0,1.8-0.9,2.7-1.7,2.9c1,0.4,2.1,1.3,2.1,3.5c0,2.5-1.6,4.1-4,4.1
		h-3.6V343.3z M351,349.1c1.7,0,2.3-0.7,2.3-2.2c0-1.4-0.7-2.2-2.1-2.2h-1.7v4.3H351z M349.5,355.8h1.8c1.6,0,2.4-0.9,2.4-2.7
		c0-1.8-0.9-2.7-2.7-2.7h-1.5V355.8z"/>
	<path class="st0" d="M372.8,350.2c0,4.8-1.2,7.3-4.2,7.3c-2.9,0-4.1-2.4-4.1-7.2c0-4.8,1.5-7.1,4.2-7.1
		C371.6,343.1,372.8,345.4,372.8,350.2 M366.2,350.2c0,3.8,0.8,5.8,2.4,5.8c1.7,0,2.4-1.9,2.4-5.8c0-3.9-0.7-5.5-2.4-5.5
		C367,344.6,366.2,346.5,366.2,350.2"/>
	<path class="st0" d="M384.3,350.9v6.3h-1.7v-13.9h3.7c2.4,0,3.6,1.3,3.6,3.6c0,2.1-1,2.9-1.8,3.2c1.3,0.5,1.7,1.6,1.7,3.5v0.6
		c0,1.4,0.1,2.2,0.2,2.9h-1.7c-0.2-0.6-0.2-1.8-0.2-3v-0.5c0-2-0.4-2.8-2.2-2.8H384.3z M384.3,349.5h1.7c1.7,0,2.3-0.9,2.3-2.5
		c0-1.4-0.6-2.3-2.1-2.3h-1.8V349.5z"/>
	<path class="st0" d="M401.5,353l-1,4.2h-1.7l3.3-13.9h2.2l3.4,13.9H406l-1-4.2H401.5z M404.7,351.5c-0.8-3.3-1.3-5.4-1.4-6.5h0
		c-0.2,1.2-0.7,3.6-1.4,6.5H404.7z"/>
	<polygon class="st0" points="417.5,344.9 414.5,344.9 414.5,343.3 422.3,343.3 422.3,344.9 419.2,344.9 419.2,357.2 417.5,357.2 	
		"/>
	<rect x="431.4" y="343.3" class="st0" width="1.7" height="13.9"/>
	<path class="st0" d="M451.2,350.2c0,4.8-1.2,7.3-4.2,7.3c-2.9,0-4.1-2.4-4.1-7.2c0-4.8,1.5-7.1,4.2-7.1
		C450,343.1,451.2,345.4,451.2,350.2 M444.6,350.2c0,3.8,0.8,5.8,2.4,5.8c1.7,0,2.4-1.9,2.4-5.8c0-3.9-0.7-5.5-2.4-5.5
		C445.3,344.6,444.6,346.5,444.6,350.2"/>
	<path class="st0" d="M460.9,357.2v-13.9h2c3.7,9.3,4.2,10.6,4.4,11.2h0c-0.1-1.8-0.1-3.9-0.1-6.2v-5h1.6v13.9h-2
		c-3.8-9.7-4.3-11.1-4.5-11.6h0c0.1,1.7,0.1,3.9,0.1,6.4v5.2H460.9z"/>
</g>
</svg>
